<svg width="139" height="29" viewBox="0 0 139 29" fill="none" xmlns="http://www.w3.org/2000/svg">
<path d="M7.409 16.265C7.223 15.521 6.70633 15.149 5.859 15.149C4.39167 15.149 3.21367 15.8827 2.325 17.35C1.519 18.6313 1.116 19.9747 1.116 21.38C1.116 22.7853 1.426 23.891 2.046 24.697C2.68667 25.627 3.658 26.092 4.96 26.092C5.53867 26.092 6.15867 25.999 6.82 25.813C8.556 25.2757 10.3747 23.6223 12.276 20.853C13.6813 18.8483 14.9213 16.5853 15.996 14.064C15.2727 13.258 14.4977 12.6173 13.671 12.142L13.423 11.925C13.5263 11.8217 13.6607 11.77 13.826 11.77C14.322 11.77 15.1073 12.39 16.182 13.63C17.4013 10.7367 18.352 7.678 19.034 4.454C18.8687 4.43333 18.631 4.423 18.321 4.423C16.461 4.423 14.5907 4.702 12.71 5.26C10.044 6.04533 8.711 7.07867 8.711 8.36C8.711 8.71133 8.81433 9.03167 9.021 9.321L9.331 9.755C9.331 9.79633 9.3 9.817 9.238 9.817C8.99 9.817 8.69033 9.57933 8.339 9.104C7.94633 8.62867 7.75 8.22567 7.75 7.895C7.75 6.965 8.94867 6.066 11.346 5.198C13.764 4.33 16.2543 3.896 18.817 3.896C19.685 3.896 20.2637 3.96833 20.553 4.113C20.615 4.13367 20.646 4.268 20.646 4.516C20.646 5.59067 20.243 7.25433 19.437 9.507C18.6517 11.739 17.9387 13.568 17.298 14.994C17.608 15.3247 17.8663 15.6553 18.073 15.986C19.933 12.4313 21.6587 9.76533 23.25 7.988C25.7713 5.15667 28.489 3.741 31.403 3.741C32.953 3.741 34.224 4.299 35.216 5.415C36.2287 6.51033 36.735 7.833 36.735 9.383C36.735 9.817 36.6833 10.034 36.58 10.034C36.518 10.034 36.487 9.85833 36.487 9.507C36.487 8.081 35.9497 6.94433 34.875 6.097C33.821 5.24967 32.5397 4.826 31.031 4.826C28.3857 4.826 25.8333 6.14867 23.374 8.794C21.762 10.592 20.0673 13.0823 18.29 16.265C20.6253 19.4477 21.9067 21.194 22.134 21.504C23.8493 23.7773 25.2547 25.286 26.35 26.03C27.4453 26.774 28.3443 27.146 29.047 27.146C30.163 27.146 30.721 26.433 30.721 25.007C30.721 23.6017 30.2973 22.3203 29.45 21.163C29.388 21.101 29.357 21.0493 29.357 21.008C29.357 20.946 29.3983 20.915 29.481 20.915C29.5843 20.915 29.6773 20.9873 29.76 21.132C30.7313 22.248 31.217 23.4673 31.217 24.79C31.217 25.7407 30.9277 26.5363 30.349 27.177C29.7703 27.8177 29.016 28.138 28.086 28.138C26.722 28.138 25.296 27.487 23.808 26.185C22.3613 24.9657 21.1937 23.5397 20.305 21.907C19.995 21.287 19.561 20.4087 19.003 19.272C18.445 18.1147 18.073 17.3603 17.887 17.009L16.554 19.365C14.9007 22.3203 13.6193 23.798 12.71 23.798C12.4 23.798 12.245 23.6947 12.245 23.488C12.245 23.3847 12.3793 23.3227 12.648 23.302C13.6193 23.178 14.694 22.1137 15.872 20.109C16.0167 19.8817 16.6263 18.745 17.701 16.699C17.453 16.2237 17.236 15.831 17.05 15.521C13.516 22.7957 9.517 26.433 5.053 26.433C3.52367 26.433 2.30433 25.937 1.395 24.945C0.485667 23.9737 0.031 22.6717 0.031 21.039C0.031 19.3857 0.537333 17.8977 1.55 16.575C2.58333 15.2523 3.91633 14.591 5.549 14.591C6.02433 14.591 6.45833 14.7253 6.851 14.994C7.285 15.2213 7.502 15.5727 7.502 16.048C7.502 16.172 7.471 16.2443 7.409 16.265ZM34.7537 18.094C34.8777 17.9287 34.9707 17.846 35.0327 17.846C35.0947 17.846 35.1257 17.8977 35.1257 18.001C35.1257 18.0837 35.0843 18.1767 35.0017 18.28C33.1417 21.0493 31.7053 22.434 30.6927 22.434C30.1347 22.434 29.711 22.1757 29.4217 21.659C29.153 21.1217 29.0187 20.5327 29.0187 19.892C29.0187 19.2307 29.122 18.4763 29.3287 17.629C28.0267 20.5223 26.6833 21.969 25.2987 21.969C24.4513 21.969 24.0277 21.4213 24.0277 20.326C24.0277 18.5693 24.875 16.7403 26.5697 14.839C28.285 12.9377 29.99 11.987 31.6847 11.987C32.4907 11.987 32.8937 12.3383 32.8937 13.041C32.8937 13.909 32.315 14.777 31.1577 15.645C30.5583 17.133 30.2587 18.5693 30.2587 19.954C30.2587 21.318 30.517 22 31.0337 22C31.7157 22 32.9557 20.698 34.7537 18.094ZM31.4677 14.591C31.7983 14.1363 31.9637 13.6817 31.9637 13.227C31.9637 12.7723 31.7467 12.545 31.3127 12.545C30.2793 12.545 28.9257 13.568 27.2517 15.614C25.5777 17.6393 24.7407 19.1997 24.7407 20.295C24.7407 20.7703 24.968 21.008 25.4227 21.008C26.7247 21.008 27.9853 19.5613 29.2047 16.668C28.8327 16.7713 28.5847 16.823 28.4607 16.823C28.3367 16.823 28.2747 16.792 28.2747 16.73C28.2747 16.6267 28.4193 16.5233 28.7087 16.42L29.6697 15.862C29.711 15.5107 29.928 15.056 30.3207 14.498C30.7133 13.9193 31.0853 13.63 31.4367 13.63C31.5607 13.63 31.6227 13.7127 31.6227 13.878C31.6227 14.0433 31.571 14.281 31.4677 14.591ZM36.3688 16.265L36.1518 13.971C36.1518 13.8263 36.2345 13.723 36.3998 13.661L37.7638 13.289C38.0738 12.5863 38.5905 12.235 39.3138 12.235C39.6238 12.235 39.7271 12.359 39.6238 12.607L40.3678 12.266C40.4091 12.266 40.4298 12.297 40.4298 12.359C40.4298 12.545 40.0991 12.7827 39.4378 13.072C38.8798 14.3533 37.8981 16.8643 36.4928 20.605C37.6915 19.2203 38.6318 18.0733 39.3138 17.164C39.9338 16.0273 40.6985 14.8183 41.6078 13.537C41.8558 13.165 42.2795 12.979 42.8788 12.979C43.4781 12.979 43.7778 13.2063 43.7778 13.661C43.7778 13.847 43.5091 14.6013 42.9718 15.924C42.4551 17.226 42.1968 17.9183 42.1968 18.001C43.2508 17.071 44.2221 15.9033 45.1108 14.498C45.1935 14.3533 45.2658 14.281 45.3278 14.281C45.4105 14.281 45.4518 14.3327 45.4518 14.436C45.4518 14.7047 44.9041 15.5933 43.8088 17.102C42.5481 18.776 41.8661 19.675 41.7628 19.799C41.6801 19.923 41.5458 19.985 41.3598 19.985C41.1945 19.985 41.1118 19.9127 41.1118 19.768C41.1118 19.5613 41.3908 18.3627 41.9488 16.172C42.1141 15.5107 42.1968 14.8493 42.1968 14.188C41.4735 15.2833 40.5228 16.513 39.3448 17.877L36.2758 21.38C36.2138 21.938 35.9451 22.217 35.4698 22.217C35.2838 22.217 35.1908 22.1343 35.1908 21.969L35.2528 21.814C35.2115 21.7727 35.3045 21.4833 35.5318 20.946C35.7591 20.388 35.9555 19.6543 36.1208 18.745C36.2861 17.815 36.3688 16.9883 36.3688 16.265ZM50.6908 21.039C50.6908 21.2043 50.4531 21.3697 49.9778 21.535C49.5025 21.6797 49.1615 21.752 48.9548 21.752C47.8181 21.752 46.9295 20.9977 46.2888 19.489C45.7721 18.3317 45.5138 17.226 45.5138 16.172C45.5138 15.0973 45.5861 14.4257 45.7308 14.157C45.8755 13.8883 46.1235 13.754 46.4748 13.754C46.8468 13.754 47.0535 13.8057 47.0948 13.909C47.0535 13.909 47.0018 14.126 46.9398 14.56C46.8778 14.9733 46.8468 15.583 46.8468 16.389C46.8468 17.195 47.0225 18.094 47.3738 19.086C47.8698 20.512 48.5621 21.225 49.4508 21.225C49.6368 21.225 49.8435 21.1837 50.0708 21.101C50.2981 20.9977 50.4531 20.946 50.5358 20.946C50.6391 20.946 50.6908 20.977 50.6908 21.039ZM37.5468 13.816L36.7098 14.095C36.8131 14.6737 36.8648 15.2213 36.8648 15.738C37.0301 15.2213 37.2575 14.5807 37.5468 13.816ZM58.8467 14.87C58.8467 15.4693 58.6607 16.0273 58.2887 16.544C57.9374 17.0607 57.5964 17.319 57.2657 17.319C57.2037 17.319 57.1727 17.2777 57.1727 17.195C57.2967 16.885 57.4414 16.5543 57.6067 16.203C57.7721 15.831 57.8547 15.4177 57.8547 14.963C57.8547 14.4877 57.6791 14.25 57.3277 14.25C56.8524 14.25 56.0981 14.8287 55.0647 15.986C54.0521 17.1227 53.3391 18.0527 52.9257 18.776L51.5927 22.341C51.5514 22.3823 51.4687 22.403 51.3447 22.403C51.2414 22.403 51.0761 22.3307 50.8487 22.186C50.6421 22.0413 50.5387 21.9173 50.5387 21.814C50.5801 21.7313 50.6317 21.597 50.6937 21.411C50.7764 21.225 50.8487 21.0803 50.9107 20.977C51.7167 19.2617 52.2644 17.877 52.5537 16.823C52.8637 15.7483 53.0187 14.6943 53.0187 13.661C52.9361 13.9917 52.5641 14.7253 51.9027 15.862C50.9107 17.5773 50.3527 18.435 50.2287 18.435C50.1047 18.435 50.0427 18.404 50.0427 18.342C50.0427 18.3007 50.4664 17.5877 51.3137 16.203C52.1817 14.8183 52.7707 13.5267 53.0807 12.328C53.2047 11.7907 53.4114 11.522 53.7007 11.522C54.0314 11.522 54.1967 11.9353 54.1967 12.762C54.1967 14.25 53.7214 16.079 52.7707 18.249C53.8867 16.8643 54.6617 15.9343 55.0957 15.459C56.2737 14.1983 57.1934 13.568 57.8547 13.568C58.5161 13.568 58.8467 14.002 58.8467 14.87ZM68.5589 20.233V20.295C67.8356 21.287 67.0399 21.783 66.1719 21.783C65.3039 21.783 64.8699 21.0183 64.8699 19.489C64.8699 18.869 64.9216 17.9907 65.0249 16.854C64.2396 18.342 62.9479 19.7887 61.1499 21.194C60.9639 21.3387 60.6126 21.6073 60.0959 22C59.9926 22.0827 59.8066 22.124 59.5379 22.124C59.2899 22.124 59.1659 22.062 59.1659 21.938C59.1659 21.194 59.4966 20.171 60.1579 18.869C60.8399 17.567 61.2636 16.637 61.4289 16.079C61.5943 15.5003 61.6769 14.6943 61.6769 13.661C61.5943 13.9917 61.2223 14.7253 60.5609 15.862C59.5689 17.5773 59.0109 18.435 58.8869 18.435C58.7629 18.435 58.7009 18.3937 58.7009 18.311L59.6309 16.73C60.6229 14.994 61.2636 13.537 61.5529 12.359C61.6769 11.8217 61.9249 11.553 62.2969 11.553C62.6689 11.553 62.8549 12.0283 62.8549 12.979C62.8549 13.909 62.5863 15.2213 62.0489 16.916L60.7469 20.977C62.4829 19.6543 63.9296 18.032 65.0869 16.11C65.2936 14.6633 65.5726 13.7127 65.9239 13.258C66.0479 13.1133 66.2753 13.041 66.6059 13.041C66.9573 13.041 67.1329 13.1547 67.1329 13.382C67.1329 14.002 66.9366 14.5703 66.5439 15.087C66.0893 16.637 65.8619 18.1457 65.8619 19.613C65.8619 20.605 66.1719 21.101 66.7919 21.101C67.1019 21.101 67.4119 20.9667 67.7219 20.698C68.0526 20.4293 68.2593 20.2537 68.3419 20.171C68.4453 20.0883 68.4866 20.047 68.4659 20.047C68.5279 20.047 68.5589 20.109 68.5589 20.233ZM76.057 6.314C75.8917 6.39667 75.7057 6.55167 75.499 6.779C71.6964 13.8677 69.795 18.4247 69.795 20.45C69.795 21.132 70.0224 21.473 70.477 21.473C71.0557 21.473 71.8617 21.0183 72.895 20.109C73.0604 19.9643 73.174 19.861 73.236 19.799C73.3187 19.737 73.3497 19.706 73.329 19.706C73.4117 19.706 73.453 19.737 73.453 19.799C73.453 19.861 73.4117 19.954 73.329 20.078C72.4197 21.3593 71.4897 22 70.539 22C69.5057 22 68.989 21.4523 68.989 20.357C68.989 19.2617 69.516 17.288 70.57 14.436C70.0534 15.1387 69.6917 15.49 69.485 15.49C69.423 15.49 69.392 15.4693 69.392 15.428C69.392 15.3867 69.6607 15.0147 70.198 14.312C70.756 13.5887 71.0557 13.1857 71.097 13.103C71.7377 11.243 72.6987 9.011 73.98 6.407C75.2614 3.803 76.1397 2.067 76.615 1.199C76.7804 0.847666 77.1214 0.671999 77.638 0.671999C78.1754 0.671999 78.444 0.744332 78.444 0.888998C78.444 1.03367 77.6484 2.842 76.057 6.314ZM89.9567 15.676C94.5653 15.4487 96.973 15.335 97.1797 15.335C97.3863 15.335 97.4897 15.366 97.4897 15.428C97.4897 15.5933 97.2727 15.7277 96.8387 15.831C94.09 15.831 91.6823 16.017 89.6157 16.389C88.107 19.179 86.3193 21.6797 84.2527 23.891C84.6247 23.9943 85.0277 24.0873 85.4617 24.17C85.9163 24.2527 86.1437 24.325 86.1437 24.387C86.1437 24.4903 85.9887 24.542 85.6787 24.542C85.3687 24.542 84.8107 24.4077 84.0047 24.139C81.0493 27.239 78.3833 28.789 76.0067 28.789C74.9733 28.789 74.4567 28.4377 74.4567 27.735C74.4567 27.3217 74.5393 27.053 74.7047 26.929V27.239C74.7047 28.0037 75.1387 28.386 76.0067 28.386C78.1353 28.386 80.4707 26.8567 83.0127 23.798C82.5373 23.5913 82.1757 23.4053 81.9277 23.24C79.9643 25.6993 78.249 26.929 76.7817 26.929C76.5957 26.929 76.5027 26.867 76.5027 26.743C76.5027 26.6397 76.5647 26.5673 76.6887 26.526C76.792 26.5053 77.071 26.4537 77.5257 26.371C78.807 25.9783 80.1813 24.8727 81.6487 23.054C80.636 22.31 80.1297 21.473 80.1297 20.543C80.1297 19.613 80.8323 18.714 82.2377 17.846C83.2503 17.2053 84.3973 16.7197 85.6787 16.389C87.7247 11.9043 88.8303 7.678 88.9957 3.71C88.6857 3.586 88.3137 3.524 87.8797 3.524C86.3917 3.524 84.8313 4.144 83.1987 5.384C81.566 6.624 80.7497 7.91567 80.7497 9.259C80.7497 10.5817 81.6383 11.6977 83.4157 12.607C83.4777 12.6277 83.5087 12.7 83.5087 12.824C83.5087 12.948 83.4363 13.01 83.2917 13.01H83.1677C82.2583 12.638 81.4317 12.1007 80.6877 11.398C79.9643 10.6953 79.6027 9.92033 79.6027 9.073C79.6027 7.895 80.2537 6.779 81.5557 5.725C82.589 4.83633 83.674 4.206 84.8107 3.834C85.968 3.462 87.053 3.276 88.0657 3.276C88.3137 3.276 88.6237 3.29667 88.9957 3.338V2.284C88.9957 2.11867 89.0577 2.036 89.1817 2.036C89.2643 2.036 89.316 2.49067 89.3367 3.4C91.4447 3.834 92.4987 5.26 92.4987 7.678C92.4987 9.70333 91.6513 12.3693 89.9567 15.676ZM99.5977 27.332C97.2623 27.332 96.0947 25.999 96.0947 23.333C96.0947 21.5763 96.6217 19.21 97.6757 16.234L101.396 7.213L102.667 4.02C102.853 3.54467 103.008 3.307 103.132 3.307C103.276 3.307 103.349 3.4 103.349 3.586C103.349 3.93733 102.811 5.65267 101.737 8.732C100.683 11.8113 99.8973 14.219 99.3807 15.955C98.5127 19.055 98.0787 21.4937 98.0787 23.271C98.0787 25.689 98.8123 26.898 100.28 26.898C100.879 26.898 101.509 26.6707 102.171 26.216C102.77 25.782 103.824 24.8623 105.333 23.457L105.395 23.488C105.395 23.5293 105.364 23.6017 105.302 23.705C104.62 24.697 103.752 25.5443 102.698 26.247C101.664 26.9703 100.631 27.332 99.5977 27.332ZM90.8867 6.996C90.8867 5.40467 90.37 4.361 89.3367 3.865C89.2953 7.48167 88.2103 11.6253 86.0817 16.296C86.8877 16.0893 87.5593 15.955 88.0967 15.893C89.9567 12.0697 90.8867 9.104 90.8867 6.996ZM87.6007 16.792C86.4433 17.1433 85.7407 17.3707 85.4927 17.474C84.48 19.5407 83.395 21.3387 82.2377 22.868C82.5063 23.1367 82.8473 23.3433 83.2607 23.488C84.8313 21.566 86.278 19.334 87.6007 16.792ZM81.3697 21.225C81.3697 21.721 81.5763 22.1963 81.9897 22.651C83.0023 21.3077 84.0253 19.644 85.0587 17.66C82.5993 18.776 81.3697 19.9643 81.3697 21.225ZM111.194 18.094C111.318 17.9287 111.411 17.846 111.473 17.846C111.535 17.846 111.566 17.8977 111.566 18.001C111.566 18.0837 111.525 18.1767 111.442 18.28C109.582 21.0493 108.146 22.434 107.133 22.434C106.575 22.434 106.151 22.1757 105.862 21.659C105.593 21.1217 105.459 20.5327 105.459 19.892C105.459 19.2307 105.562 18.4763 105.769 17.629C104.467 20.5223 103.124 21.969 101.739 21.969C100.892 21.969 100.468 21.4213 100.468 20.326C100.468 18.5693 101.315 16.7403 103.01 14.839C104.725 12.9377 106.43 11.987 108.125 11.987C108.931 11.987 109.334 12.3383 109.334 13.041C109.334 13.909 108.755 14.777 107.598 15.645C106.999 17.133 106.699 18.5693 106.699 19.954C106.699 21.318 106.957 22 107.474 22C108.156 22 109.396 20.698 111.194 18.094ZM107.908 14.591C108.239 14.1363 108.404 13.6817 108.404 13.227C108.404 12.7723 108.187 12.545 107.753 12.545C106.72 12.545 105.366 13.568 103.692 15.614C102.018 17.6393 101.181 19.1997 101.181 20.295C101.181 20.7703 101.408 21.008 101.863 21.008C103.165 21.008 104.426 19.5613 105.645 16.668C105.273 16.7713 105.025 16.823 104.901 16.823C104.777 16.823 104.715 16.792 104.715 16.73C104.715 16.6267 104.86 16.5233 105.149 16.42L106.11 15.862C106.151 15.5107 106.368 15.056 106.761 14.498C107.154 13.9193 107.526 13.63 107.877 13.63C108.001 13.63 108.063 13.7127 108.063 13.878C108.063 14.0433 108.011 14.281 107.908 14.591ZM119.629 17.381C119.691 17.381 119.722 17.4223 119.722 17.505C119.722 17.5877 119.702 17.66 119.66 17.722C118.958 18.9 118.09 19.5923 117.056 19.799C116.994 20.5223 116.767 21.132 116.374 21.628C116.002 22.124 115.382 22.372 114.514 22.372C113.667 22.372 112.861 21.969 112.096 21.163C111.332 20.3363 110.949 19.4373 110.949 18.466C110.949 17.8253 111.115 17.505 111.445 17.505C111.652 17.505 111.859 17.66 112.065 17.97C112.685 16.5233 113.564 14.8907 114.7 13.072C115.424 11.956 116.271 11.398 117.242 11.398C117.449 11.398 117.687 11.4807 117.955 11.646C118.245 11.7907 118.389 11.956 118.389 12.142C118.389 12.2867 118.296 12.359 118.11 12.359C117.945 12.359 117.821 12.3487 117.738 12.328H117.49C117.015 12.328 116.602 12.4727 116.25 12.762C115.92 13.0307 115.754 13.32 115.754 13.63C115.754 13.9193 115.785 14.157 115.847 14.343L116.591 16.823C116.881 17.8563 117.025 18.7037 117.025 19.365C117.583 19.2823 118.017 19.1067 118.327 18.838C118.658 18.5693 119.03 18.125 119.443 17.505C119.505 17.4223 119.567 17.381 119.629 17.381ZM115.754 19.768C115.775 19.6647 115.785 19.4477 115.785 19.117C115.785 18.7863 115.63 18.0113 115.32 16.792C115.031 15.5727 114.886 14.808 114.886 14.498C114.886 14.188 114.897 13.9917 114.917 13.909C114.38 14.467 113.502 15.955 112.282 18.373C113.15 18.869 113.801 19.2203 114.235 19.427C114.669 19.613 115.176 19.7267 115.754 19.768ZM114.08 21.349C114.886 21.349 115.434 20.946 115.723 20.14C114.07 20.14 112.809 19.799 111.941 19.117C111.983 19.5923 112.231 20.0883 112.685 20.605C113.14 21.101 113.605 21.349 114.08 21.349ZM129.267 18.094C129.391 17.9287 129.484 17.846 129.546 17.846C129.608 17.846 129.639 17.8977 129.639 18.001C129.639 18.0837 129.598 18.1767 129.515 18.28C127.655 21.0493 126.219 22.434 125.206 22.434C124.648 22.434 124.225 22.1757 123.935 21.659C123.667 21.1217 123.532 20.5327 123.532 19.892C123.532 19.2307 123.636 18.4763 123.842 17.629C122.54 20.5223 121.197 21.969 119.812 21.969C118.965 21.969 118.541 21.4213 118.541 20.326C118.541 18.5693 119.389 16.7403 121.083 14.839C122.799 12.9377 124.504 11.987 126.198 11.987C127.004 11.987 127.407 12.3383 127.407 13.041C127.407 13.909 126.829 14.777 125.671 15.645C125.072 17.133 124.772 18.5693 124.772 19.954C124.772 21.318 125.031 22 125.547 22C126.229 22 127.469 20.698 129.267 18.094ZM125.981 14.591C126.312 14.1363 126.477 13.6817 126.477 13.227C126.477 12.7723 126.26 12.545 125.826 12.545C124.793 12.545 123.439 13.568 121.765 15.614C120.091 17.6393 119.254 19.1997 119.254 20.295C119.254 20.7703 119.482 21.008 119.936 21.008C121.238 21.008 122.499 19.5613 123.718 16.668C123.346 16.7713 123.098 16.823 122.974 16.823C122.85 16.823 122.788 16.792 122.788 16.73C122.788 16.6267 122.933 16.5233 123.222 16.42L124.183 15.862C124.225 15.5107 124.442 15.056 124.834 14.498C125.227 13.9193 125.599 13.63 125.95 13.63C126.074 13.63 126.136 13.7127 126.136 13.878C126.136 14.0433 126.085 14.281 125.981 14.591ZM128.898 22.186L130.634 14.343C130.552 14.0537 130.324 13.4957 129.952 12.669C129.952 12.5243 130.128 12.39 130.479 12.266C131.513 11.8733 132.174 11.677 132.463 11.677C132.773 11.677 132.928 11.77 132.928 11.956C132.164 13.8573 131.637 15.18 131.347 15.924C131.347 15.986 131.347 16.048 131.347 16.11C131.347 16.7507 131.254 17.071 131.068 17.071C131.027 17.071 130.996 17.04 130.975 16.978C130.541 18.28 130.242 19.2307 130.076 19.83C131.027 18.28 131.998 16.9263 132.99 15.769C134.54 13.971 135.822 13.072 136.834 13.072C137.31 13.072 137.547 13.258 137.547 13.63C137.547 13.7747 136.948 16.048 135.749 20.45C136.948 19.5613 137.878 18.6107 138.539 17.598C138.643 17.474 138.715 17.412 138.756 17.412C138.818 17.412 138.849 17.443 138.849 17.505C138.849 17.567 138.818 17.6497 138.756 17.753C137.847 19.365 136.741 20.6463 135.439 21.597C135.336 21.721 135.202 21.783 135.036 21.783C134.892 21.783 134.819 21.69 134.819 21.504C134.819 21.318 134.943 20.6153 135.191 19.396C135.439 18.1767 135.615 17.2467 135.718 16.606C135.842 15.9653 135.925 15.1593 135.966 14.188C135.119 14.6013 134.075 15.49 132.835 16.854C131.595 18.218 130.769 19.2823 130.355 20.047C129.963 20.8117 129.704 21.442 129.58 21.938C129.477 22.4133 129.332 22.651 129.146 22.651C128.981 22.651 128.898 22.5167 128.898 22.248V22.186ZM131.099 12.483C130.996 12.5657 130.8 12.669 130.51 12.793L130.82 13.506L131.099 12.483Z" fill="white"/>
</svg>
