<svg width="226" height="150" viewBox="0 0 226 150" fill="none" xmlns="http://www.w3.org/2000/svg">
<g id="Group 1">
<path id="Vector 1" d="M18 0C18 34.256 12.2655 67.3638 7.55556 101.222C5.59239 115.335 4.17903 129.464 2.55556 143.611C2.29853 145.851 2.17542 147.237 1 149" stroke="#FFFDFD" stroke-miterlimit="0" stroke-linejoin="bevel"/>
<path id="Vector 2" d="M18 6C16.3216 14.6021 19.4635 22.2565 22 30.5C22.6001 32.4502 31.0458 44.1485 33.4445 42.7778C34.9207 41.9342 37.0006 37.1072 38.3889 35.5556C39.3956 34.4304 41.6878 32.4841 41.9445 30.9444C42.3862 28.2939 42.7484 25.4447 43.7778 23C44.8107 20.5469 46 15.1954 46 12.5556C46 11.7556 46.2139 9.88085 47.5 10.1667C49.6898 10.6533 49 16.4284 49 18C49 30.4612 52 42.5743 52 54.9444C52 67.3436 52.6786 82 68 82" stroke="#FFFDFD" stroke-miterlimit="0" stroke-linejoin="bevel"/>
<path id="Vector 3" d="M71 51C67.1124 62.663 68.0828 78.0619 69.0556 90.2222C69.339 93.765 72 91.6268 72 89" stroke="#FFFDFD" stroke-miterlimit="0" stroke-linejoin="bevel"/>
<path id="Vector 4" d="M84 36C84 50.2593 84 64.5185 84 78.7778C84 81.6356 85.163 100.63 84 89" stroke="#FFFDFD" stroke-miterlimit="0" stroke-linejoin="bevel"/>
<path id="Vector 5" d="M79 65C87.0602 66.3719 94.9304 66.0087 103 65" stroke="#FFFDFD" stroke-miterlimit="0" stroke-linejoin="bevel"/>
<path id="Vector 6" d="M96 63C96.8667 67.2371 98.5779 86.7699 104.222 87.7778C108.41 88.5256 111.464 76.8171 111.833 74.1111C112.252 71.0397 110.751 65.7795 112.222 63C113.386 60.8023 115.007 70.2486 115.056 70.6111C115.766 75.9394 117.242 81.8566 122 85C126.359 87.8801 131.788 88 136.833 88C140.712 88 138.549 88 136 88" stroke="#FFFDFD" stroke-miterlimit="0" stroke-linejoin="bevel"/>
<path id="Vector 7" d="M72 32C72 33.7577 72 41.8786 72 36" stroke="#FFFDFD" stroke-miterlimit="0" stroke-linejoin="bevel"/>
<path id="Vector 8" d="M72 136C91.2016 121.529 109.277 106.411 130.333 94.5555C152.703 81.9609 175.813 70.8586 199.778 61.6667C208.6 58.2829 211.293 56.0097 217 64" stroke="#FFFDFD" stroke-miterlimit="0" stroke-linejoin="bevel"/>
<path id="Vector 9" d="M226 56C223.667 56 221.333 56 219 56" stroke="#FFFDFD" stroke-miterlimit="0" stroke-linejoin="bevel"/>
</g>
</svg>
