<svg width="194" height="125" viewBox="0 0 194 125" fill="none" xmlns="http://www.w3.org/2000/svg">
<path d="M1 124C7.17756 115.958 10.6211 107.374 14.0556 97.8889C18.7212 85.0029 23.888 72.299 28.3333 59.3333C34.0349 42.7037 39 26.8301 39 9.22221C39 6.63451 38.9192 4.03104 39 1.44443C39.0455 -0.0119797 40.8084 6.91064 41 7.77776C45.192 26.7522 51.2176 44.7115 58.8889 62.6111C61.0841 67.7333 66.2395 66.2131 70.8889 64.8889C86.7716 60.3653 105.775 50.2864 115.5 36.3333C118.338 32.2621 119.422 27.3628 120.778 22.6667C122.048 18.265 124.345 14.9413 126.333 10.8889C127.04 9.44896 126.676 7.59693 127.5 6.27776C127.689 5.97508 127.06 9.12857 126.5 9.99998C124.107 13.7231 124.071 15.7903 124 20.2222C123.874 28.0106 121.482 35.6542 120.944 43.4444C120.411 51.1756 118 58.6891 118 66.4444C118 72.1296 118 77.8148 118 83.5C118 86.8307 118.036 89.7553 118.778 93C119.939 98.0815 121.863 94.4211 124.889 91.6111C128.285 88.4575 131 80.0279 131 75.5555C131 71.2665 131 73.5067 131 76.7778C131 80.1069 131.043 84.9758 132.556 88C135.802 94.4922 139.316 93.3812 143.5 86.9444C149.146 78.2582 149.119 69.1885 151.444 59.5555C153.309 51.8328 152.021 44.2037 153.056 36.4444C153.508 33.0539 154.261 29.4851 154 35.2222C153.829 38.9867 152 42.0748 152 46.0555C152 56.3539 154 65.6783 154 76.0555C154 82.129 158.592 91.5343 165.222 84C167.52 81.389 170.163 78.0156 170.944 74.5C171.797 70.663 173 58.9583 173 62.8889C173 67.4259 173 71.9629 173 76.5C173 78.2073 174.787 79.1874 175 81C175.327 83.7822 182.67 83.9943 183.778 82C185.891 78.1954 187 72.5035 187 68.2222C187 64.951 187 74.9877 187 77C187 81.5309 186.202 84 181 84C174.887 84 174.478 81.0744 172.222 76C170.087 71.1968 173.031 70.4611 169.222 75.2222C167.138 77.8275 168.356 82.6805 165 84.7778C162.586 86.2864 154.786 89.3411 152.222 86.7778C150.872 85.4271 152 77.9609 152 76C152 71.9259 152 67.8518 152 63.7778C152 61.5016 151.563 58.7176 152.056 56.5C153.098 51.8102 145.305 54.3883 142.444 56.2222C139.448 58.1428 135.808 60 132.111 60C131.484 60 129.97 60.5341 130.444 60.3333C139.39 56.5485 148.827 53.9568 158.111 51.1111C166.155 48.6455 174.026 45.9536 182.056 43.4444C184.933 42.5451 191.594 36.7817 193 41" stroke="white" stroke-miterlimit="0" stroke-linejoin="bevel"/>
</svg>
